<?xml version="1.0" encoding="utf-8"?>
<!-- Generator: Adobe Illustrator 22.0.1, SVG Export Plug-In . SVG Version: 6.00 Build 0)  -->
<svg version="1.1" xmlns="http://www.w3.org/2000/svg" xmlns:xlink="http://www.w3.org/1999/xlink" x="0px" y="0px"
	 viewBox="0 0 2272 1872" style="enable-background:new 0 0 2272 1872;" xml:space="preserve">
<style type="text/css">
	.st0{fill:#FFFFFF;}
	.st1{fill:url(#SVGID_1_);}
	.st2{fill:url(#SVGID_2_);}
	.st3{fill:#F48E69;}
	.st4{fill:#AF5235;}
	.st5{fill:#9681FF;}
	.st6{fill:#E2DEFF;}
	.st7{fill:url(#SVGID_3_);stroke:#440136;stroke-width:5;stroke-miterlimit:10;}
	.st8{fill:url(#SVGID_4_);stroke:#440136;stroke-width:5;stroke-miterlimit:10;}
	.st9{fill:#596F9B;}
	.st10{fill:#440136;}
	.st11{fill:#8DA9D8;}
	.st12{fill:#4DA8BB;}
	.st13{fill:#7BE1EF;}
	.st14{fill:#873B26;}
	.st15{fill:#2C3E50;}
	.st16{fill:#446077;}
	.st17{fill:#FFC39A;}
	.st18{fill:#F39C26;}
	.st19{fill:#FF777F;}
	.st20{fill:#FEC000;}
	.st21{fill:#FFE292;}
</style>
<g id="Background">
	<g id="Layer_1_1_">
	</g>
	<g id="Layer_2">
	</g>
	<g id="Layer_1_2_">
	</g>
	<g id="Layer_2_1_">
	</g>
	<rect class="st0" width="2272" height="1872"/>
</g>
<g id="object">
	<g>
		<linearGradient id="SVGID_1_" gradientUnits="userSpaceOnUse" x1="1118.2802" y1="310.7102" x2="1118.2802" y2="763.7751">
			<stop  offset="0" style="stop-color:#003368"/>
			<stop  offset="0.9951" style="stop-color:#5D2E60"/>
		</linearGradient>
		<path class="st1" d="M337.3,1314c-38.4-68.7-40.8-156.1-6.4-226.8c14.2-29.1,34.1-55.4,44.5-86.1
			c39.7-117.2-72.2-245.5-34.3-363.2c22.7-70.5,92.6-114.1,161-142.5c68.4-28.4,142.6-49.2,197.3-99
			c47.8-43.5,75.6-104.5,117.2-153.9c59.7-70.7,145.8-114.6,234.2-142.1c48.5-15.1,101.1-25.8,149.5-10.4
			c80.7,25.5,123.3,112.7,190.9,163.6c43.3,32.6,96,49.5,145.3,72.2s98.3,54.1,121.2,103.2c33.4,71.8,2.5,162.1,39.1,232.3
			c25.2,48.4,76.5,76,117.7,111.7c113.8,98.6,148.8,277.1,80.6,411.4c-56.8,111.8-172.3,184.6-293.2,218.3
			c-120.8,33.7-248.1,33.5-373.6,33c-135.8-0.5-271.5-1.1-407.3-1.6c-67.9-0.3-135.8-0.5-203.6-0.8c-52.3-0.2-105.9,9.1-155.4-10.6
			C411.8,1402.3,361.9,1363.3,337.3,1314z"/>
		<linearGradient id="SVGID_2_" gradientUnits="userSpaceOnUse" x1="1118.28" y1="376.7386" x2="1118.28" y2="1126.7133">
			<stop  offset="0" style="stop-color:#003368"/>
			<stop  offset="0.9951" style="stop-color:#5D2E60"/>
		</linearGradient>
		<path class="st2" d="M1263.6,886.8c-170.4,93.9-375.4,93.8-569.8,85.1c-65.4-2.9-131.5-6.7-194.6-24.4
			c-42.6-12-82.5-29.9-120.4-51.8c6.8,35.7,8.2,71-3.4,105.4c-10.4,30.6-30.3,57-44.5,86.1c-34.5,70.7-32,158.2,6.4,226.8
			c24.7,49.3,74.5,88.4,124.9,108.4c49.5,19.7,103.1,10.4,155.4,10.6c67.9,0.3,135.8,0.5,203.6,0.8c135.8,0.5,271.5,1.1,407.3,1.6
			c125.4,0.5,252.8,0.8,373.6-33c120.8-33.7,236.4-106.5,293.2-218.3c68.1-134.2,33.1-312.8-80.6-411.4
			c-41.2-35.7-92.5-63.3-117.7-111.7c-16.6-31.9-19.3-67.9-20.4-104.4c-47.7,32.5-93.2,68.3-136.1,105.9
			C1450.8,741,1367.8,829.4,1263.6,886.8z"/>
		<path class="st3" d="M1827.1,1468c87.3-13.3,138.2-29.2,138.2-46.4c0-46.1-367.2-83.4-820.1-83.4S325,1375.6,325,1421.7
			c0,20.5,73,39.4,194.1,53.9c-60.5,11.9-94.9,25.6-94.9,40.1c0,24.2,95,46,246.8,61.2c-107.2,9.4-175.1,23.3-175.1,38.8
			c0,16.8,80,31.8,203.4,41.1c-47.7,13.3-75.2,29-75.2,45.8c0,48,225.4,87,503.5,87s503.5-39,503.5-87c0-13.8-18.7-26.9-51.9-38.5
			c151.2-8.8,253-25.4,253-44.4c0-15.1-63.9-28.6-165.7-38c181.8-15.3,298.8-39.1,298.8-66C1965.3,1498,1914.2,1481.5,1827.1,1468z"
			/>
		<path class="st4" d="M1827.1,1468c87.3-13.3,138.2-29.2,138.2-46.4c0-29.5-150.7-55.5-378.2-70.3
			c-80.5,61.4-167.4,114.5-258.9,157.9c-170.5,80.7-355,127.5-539.8,165.3c-54.3,11.1-109.2,21.5-164.2,28.8
			c2.4,47.7,226.9,86.2,503.5,86.2c278.1,0,503.5-39,503.5-87c0-13.8-18.7-26.9-51.9-38.5c151.2-8.8,253-25.4,253-44.4
			c0-15.1-63.9-28.6-165.7-38c181.8-15.3,298.8-39.1,298.8-66C1965.3,1498,1914.2,1481.5,1827.1,1468z"/>
		<g>
			<path class="st5" d="M476.8,1369c-24.5-38-45.6-78.3-62.9-120.1c-6.5-15.6-10.2-37.9,4.8-45.7c14.9-7.6,30.7,7.9,40.2,21.7
				c18.2,26.3,36.4,52.5,54.6,78.8c-32.4-83.1-48.9-172.4-48.5-261.5c0.2-30.2,2.4-60.9,13.5-88.9c2.9-7.2,7.4-15.1,15.1-16.2
				c10.8-1.6,17.8,10.7,21.4,21c35.5,101.8,50.8,209.4,66,316.1c0.9-77.8,18.7-155.4,51.8-225.8c6.9-14.8,15.6-30.3,30.5-37
				c5.1-2.3,11-3.4,16.3-1.6c11.5,3.8,14.9,18.2,16.3,30.3c10,90,6.9,181.4-9.2,270.5c-2.6,14.7-4.2,55-14.4,65.7
				c-10.2,10.6-38.3,2.9-52.5,2C572.1,1375.2,524.5,1372.1,476.8,1369z"/>
			<g>
				<path class="st6" d="M510.1,1364.2c-1.8-3.3-3.6-6.6-5.4-9.9c-2.4-18.4-4.8-36.7-7.2-55.1c-0.2-1.9-3.3-1.9-3,0
					c2.1,16,4.2,32,6.3,48c-7.4-13.5-14.9-27-22.3-40.5c0.1-0.2,0.1-0.5,0.1-0.8c-3-18.4-6.9-36.6-11.6-54.6
					c-0.5-1.9-3.4-1.1-2.9,0.8c4.1,15.6,7.6,31.3,10.4,47.1c-12.2-22.2-24.4-44.3-36.6-66.5c-0.9-1.7-3.5-0.2-2.6,1.5
					c11.6,21,23.2,42.1,34.7,63.1c-13.1-12.5-26.2-25-39.3-37.5c-1.4-1.3-3.5,0.8-2.1,2.1c15.4,14.7,30.8,29.4,46.3,44.2
					c7.9,14.3,15.7,28.6,23.6,42.9c-12.9-11.2-25.9-22.3-38.8-33.5c-1.5-1.3-3.6,0.9-2.1,2.1c14.9,12.9,29.9,25.8,44.8,38.7
					c0.1,0,0.1,0.1,0.2,0.1c1.7,3.1,3.4,6.2,5.1,9.3C508.4,1367.4,511,1365.9,510.1,1364.2z"/>
				<path class="st6" d="M536.5,1271.1c8.5-24.7,15.4-50,20.5-75.6c0.4-1.9-2.5-2.7-2.9-0.8c-4.9,24.3-11.3,48.2-19.2,71.6
					c-3.1-23.5-6.1-47.1-9-70.7c5.4-7.7,6-18.9,7.9-27.7c2.7-12.7,5.4-25.3,8.1-38c0.4-1.9-2.5-2.7-2.9-0.8
					c-2.4,11.4-4.9,22.8-7.3,34.2c-1.1,5.4-2.3,10.8-3.4,16.2c-0.8,3.8-1.5,7.7-3,11.2c-3.4-27.7-6.7-55.4-9.8-83.1
					c3.6-21.6,6.3-43.4,8.3-65.2c0.2-1.9-2.8-1.9-3,0c-1.6,18.1-3.8,36.2-6.6,54.1c-1.4-12.9-2.9-25.8-4.3-38.8
					c-3-28.2-5.9-56.5-8.7-84.7c-0.2-1.9-3.2-1.9-3,0c4.3,43.8,8.9,87.6,13.9,131.3c-11.8-21.7-23.6-43.4-35.5-65.1
					c-0.9-1.7-3.5-0.2-2.6,1.5c12.7,23.4,25.5,46.7,38.2,70.1c0.1,0.3,0.4,0.5,0.7,0.6c3,26.8,6.2,53.6,9.5,80.4
					c-13.1-22.2-27.8-43.4-43.9-63.5c-1.2-1.5-3.3,0.6-2.1,2.1c16.9,21.1,32.2,43.4,45.8,66.7c0.2,0.4,0.6,0.6,1,0.7
					c2.7,21.6,5.4,43.2,8.2,64.8c-13-19.3-26.7-38-41-56.2c-1.2-1.5-3.3,0.6-2.1,2.1c15.5,19.7,30.2,39.9,44,60.8
					c0.2,1.9,0.5,3.7,0.7,5.6c3.7,27.9,7.5,55.9,11.4,83.8c0.3,1.9,3.2,1.1,2.9-0.8c-4-28.6-7.9-57.2-11.7-85.9
					C536.1,1271.9,536.4,1271.6,536.5,1271.1z"/>
			</g>
		</g>
		<g>
			<path class="st5" d="M1790.9,1369c24.5-38,45.6-78.3,62.9-120.1c6.5-15.6,10.2-37.9-4.8-45.7c-14.9-7.6-30.7,7.9-40.2,21.7
				c-18.2,26.3-36.4,52.5-54.6,78.8c32.4-83.1,48.9-172.4,48.5-261.5c-0.2-30.2-2.4-60.9-13.5-88.9c-2.9-7.2-7.4-15.1-15.1-16.2
				c-10.8-1.6-17.8,10.7-21.4,21c-35.5,101.8-50.8,209.4-66,316.1c-0.9-77.8-18.7-155.4-51.8-225.8c-6.9-14.8-15.6-30.3-30.5-37
				c-5.1-2.3-11-3.4-16.3-1.6c-11.5,3.8-14.9,18.2-16.3,30.3c-10,90-6.9,181.4,9.2,270.5c2.6,14.7,4.2,55,14.4,65.7
				c10.2,10.6,38.3,2.9,52.5,2C1695.5,1375.2,1743.2,1372.1,1790.9,1369z"/>
			<g>
				<path class="st6" d="M1757.6,1364.2c1.8-3.3,3.6-6.6,5.4-9.9c2.4-18.4,4.8-36.7,7.2-55.1c0.2-1.9,3.3-1.9,3,0
					c-2.1,16-4.2,32-6.3,48c7.4-13.5,14.9-27,22.3-40.5c-0.1-0.2-0.1-0.5-0.1-0.8c3-18.4,6.9-36.6,11.6-54.6
					c0.5-1.9,3.4-1.1,2.9,0.8c-4.1,15.6-7.6,31.3-10.4,47.1c12.2-22.2,24.4-44.3,36.6-66.5c0.9-1.7,3.5-0.2,2.6,1.5
					c-11.6,21-23.2,42.1-34.7,63.1c13.1-12.5,26.2-25,39.3-37.5c1.4-1.3,3.5,0.8,2.1,2.1c-15.4,14.7-30.8,29.4-46.3,44.2
					c-7.9,14.3-15.7,28.6-23.6,42.9c12.9-11.2,25.9-22.3,38.8-33.5c1.5-1.3,3.6,0.9,2.1,2.1c-14.9,12.9-29.9,25.8-44.8,38.7
					c-0.1,0-0.1,0.1-0.2,0.1c-1.7,3.1-3.4,6.2-5.1,9.3C1759.3,1367.4,1756.7,1365.9,1757.6,1364.2z"/>
				<path class="st6" d="M1731.1,1271.1c-8.5-24.7-15.4-50-20.5-75.6c-0.4-1.9,2.5-2.7,2.9-0.8c4.9,24.3,11.3,48.2,19.2,71.6
					c3.1-23.5,6.1-47.1,9-70.7c-5.4-7.7-6-18.9-7.9-27.7c-2.7-12.7-5.4-25.3-8.1-38c-0.4-1.9,2.5-2.7,2.9-0.8
					c2.4,11.4,4.9,22.8,7.3,34.2c1.1,5.4,2.3,10.8,3.4,16.2c0.8,3.8,1.5,7.7,3,11.2c3.4-27.7,6.7-55.4,9.8-83.1
					c-3.6-21.6-6.3-43.4-8.3-65.2c-0.2-1.9,2.8-1.9,3,0c1.6,18.1,3.8,36.2,6.6,54.1c1.4-12.9,2.9-25.8,4.3-38.8
					c3-28.2,5.9-56.5,8.7-84.7c0.2-1.9,3.2-1.9,3,0c-4.3,43.8-8.9,87.6-13.9,131.3c11.8-21.7,23.6-43.4,35.5-65.1
					c0.9-1.7,3.5-0.2,2.6,1.5c-12.7,23.4-25.5,46.7-38.2,70.1c-0.1,0.3-0.4,0.5-0.7,0.6c-3,26.8-6.2,53.6-9.5,80.4
					c13.1-22.2,27.8-43.4,43.9-63.5c1.2-1.5,3.3,0.6,2.1,2.1c-16.9,21.1-32.2,43.4-45.8,66.7c-0.2,0.4-0.6,0.6-1,0.7
					c-2.7,21.6-5.4,43.2-8.2,64.8c13-19.3,26.7-38,41-56.2c1.2-1.5,3.3,0.6,2.1,2.1c-15.5,19.7-30.2,39.9-44,60.8
					c-0.2,1.9-0.5,3.7-0.7,5.6c-3.7,27.9-7.5,55.9-11.4,83.8c-0.3,1.9-3.2,1.1-2.9-0.8c4-28.6,7.9-57.2,11.7-85.9
					C1731.6,1271.9,1731.3,1271.6,1731.1,1271.1z"/>
			</g>
		</g>
		<path class="st4" d="M418.6,1403.1c-2.2,3.6-4.3,7.8-3.5,12c1.5,7.5,10.8,10.1,18.4,10.9c49.1,5.3,98.7,0.3,148.2-0.3
			c100.7-1.2,200.9,16,301.7,15c110.6-1.1,220.1-24.3,330.7-27.5c136.6-3.9,272.5,22.6,409.1,21.1c23.6-0.3,47.9-1.5,69.5-11.1
			c21.6-9.6,40.1-29.5,41.6-53.1c0.1-2.2,0.1-4.3-0.1-6.5c-149.1-15.7-357.9-25.4-589.1-25.4c-300.2,0-562.7,16.4-705.7,40.9
			C431.3,1386,424.2,1394,418.6,1403.1z"/>
		<linearGradient id="SVGID_3_" gradientUnits="userSpaceOnUse" x1="458.9908" y1="900.9194" x2="1135.5446" y2="900.9194">
			<stop  offset="0" style="stop-color:#FFFFFF"/>
			<stop  offset="1" style="stop-color:#000000"/>
		</linearGradient>
		<line class="st7" x1="1135.5" y1="398" x2="459" y2="1403.8"/>
		<linearGradient id="SVGID_4_" gradientUnits="userSpaceOnUse" x1="1134.5446" y1="900.9194" x2="1811.0984" y2="900.9194">
			<stop  offset="0" style="stop-color:#FFFFFF"/>
			<stop  offset="1" style="stop-color:#000000"/>
		</linearGradient>
		<line class="st8" x1="1134.5" y1="398" x2="1811.1" y2="1403.8"/>
		<g>
			<g>
				<path class="st9" d="M1594.5,1204.5c9.5-17.1,23.4-33.6,23.1-53.1c-0.3-20.6-16.2-37.4-23.3-56.8c-8.4-22.8-3.5-50,12.2-68.6
					c9-10.6,22-20.1,22.4-34.1c0.4-11.7-8.7-21.5-11.8-32.9c-3.9-14,1.8-29.3,11.2-40.4c9.4-11.1,22.1-18.8,34.5-26.4
					c6.1-3.7,14.6-7.2,19.7-2.2c1.9,1.8,2.7,4.5,3.3,7c6.1,28.5-17.9,59.2-5.9,85.7c5.9,13.1,19.7,21.8,24.5,35.4
					c9.8,27.9-22.9,56.1-16.8,85.1c4.4,20.9,27.8,34.5,30.4,55.7c3.1,24.9-23.8,45.1-23.6,70.2c0.2,26.4,30.4,49.9,20.4,74.3
					c-3.2,7.7-10.2,14.2-10.1,22.6c0.1,6.3,4.3,12.3,2.8,18.4c-1.4,5.6-6.9,8.9-12,11.6c-15.2,8-30.9,15.8-48,18.5
					c-17,2.6-35.8-0.7-48.2-12.6c-19.1-18.4-17.8-49.6-19.9-74C1576.8,1258.7,1579.9,1230.7,1594.5,1204.5z"/>
				<path class="st10" d="M1613.3,1274.2c-2.5-20.6-8.9-41.9-2.5-61.7c6.9-21.1,27.4-36.6,30.2-58.6c3.6-28.1-23.1-51.6-26.1-79.7
					c-1.5-14.3,3.2-28.8,1.1-43c-0.6-4.1-1.8-8.1-3.2-12c-2.2,2.3-4.3,4.5-6.3,6.9c-15.8,18.5-20.6,45.7-12.2,68.6
					c7.1,19.4,23,36.1,23.3,56.8c0.3,19.6-13.6,36-23.1,53.1c-14.6,26.2-17.7,54.1-15.2,83.5c2.1,24.3,0.9,55.3,19.7,73.7
					c1.7-2.1,2.8-4.7,3.8-7.3C1613,1329.2,1616.6,1301.3,1613.3,1274.2z"/>
				<path class="st11" d="M1698.6,1176.3c-10.4,13.4-14.5,30-18.6,46.2c-2,8.1-4.1,16.2-7,24.1c-2.6,6.9-6.1,16.2-13.1,20
					c5.2-26.1,10.3-52.1,3-78.2c-4-14.4-12.6-27.1-15.5-41.8c-2.8-14-0.9-28.4,0.4-42.5c1.3-13.2,2.3-26.9-1.1-39.9
					c-3.6-13.8-14.9-24.6-13.5-39.6c1.5-16.8,11.7-31.6,15-48c3.4-17,2.5-34.5,1.6-51.7c-0.2-3.6-5.8-3.6-5.6,0
					c0.9,15.7,1.8,31.8-0.8,47.4c-2.6,14.9-10.1,28-14,42.5c-1.7,6.4-2.5,13.1-1.4,19.6c1.3,7.1,5.2,13.1,8.6,19.4
					c6.8,12.7,7.3,27,6.3,41.1c-1,14-3.3,28-2.4,42.1c0.9,14.9,7,27.4,12.7,40.9c11.1,26.2,7.6,53.8,2.4,81
					c-5.6,29.4-13,59.9-4.8,89.5c1,3.4,6.3,2,5.4-1.5c-6.8-24.7-2.7-49.3,2.2-74c0.1,0,0.2,0,0.3-0.1c8.2-2.6,12.8-10,16.2-17.4
					c3.8-8.2,6.4-16.8,8.6-25.5c4.6-17.7,8.2-36.1,19.6-50.9C1705.6,1176.3,1700.8,1173.5,1698.6,1176.3z"/>
				<path class="st11" d="M1666.4,990.9h-1c-1.5,0-2.8,1.3-2.8,2.8c0.1,1.5,1.2,2.8,2.8,2.8h1c1.5,0,2.8-1.3,2.8-2.8
					C1669.1,992.2,1667.9,990.9,1666.4,990.9z"/>
				<path class="st11" d="M1673.6,1120.6c-3.6,0-3.6,5.6,0,5.6C1677.2,1126.2,1677.2,1120.6,1673.6,1120.6z"/>
				<path class="st11" d="M1659.2,1145.3h-1c-1.5,0-2.8,1.3-2.8,2.8c0.1,1.5,1.2,2.8,2.8,2.8h1c1.5,0,2.8-1.3,2.8-2.8
					C1661.9,1146.6,1660.7,1145.3,1659.2,1145.3z"/>
				<path class="st11" d="M1687,1160.8c-3.6,0-3.6,5.6,0,5.6C1690.5,1166.3,1690.5,1160.8,1687,1160.8z"/>
				<path class="st11" d="M1624.1,1102.1h-1c-1.5,0-2.8,1.3-2.8,2.8c0.1,1.5,1.2,2.8,2.8,2.8h1c1.5,0,2.8-1.3,2.8-2.8
					C1626.9,1103.4,1625.7,1102.1,1624.1,1102.1z"/>
				<path class="st11" d="M1664.3,1011.5c-3.6,0-3.6,5.6,0,5.6C1667.9,1017,1667.9,1011.5,1664.3,1011.5z"/>
				<path class="st11" d="M1666.4,960c-3.6,0-3.6,5.6,0,5.6C1669.9,965.6,1670,960,1666.4,960z"/>
			</g>
			<g>
				<path class="st9" d="M1466.5,1144.2c12-21.5,29.4-42.2,29.1-66.8c-0.4-26-20.3-47-29.3-71.4c-10.6-28.7-4.5-62.9,15.4-86.3
					c11.4-13.3,27.7-25.3,28.2-42.8c0.4-14.8-10.9-27.1-14.9-41.3c-4.9-17.6,2.3-36.9,14.1-50.8c11.8-14,27.8-23.7,43.4-33.2
					c7.7-4.7,18.4-9.1,24.8-2.7c2.3,2.3,3.4,5.6,4.1,8.8c7.6,35.8-22.5,74.4-7.4,107.8c7.5,16.5,24.8,27.4,30.8,44.5
					c12.3,35.1-28.8,70.6-21.2,107c5.5,26.3,34.9,43.3,38.2,70c3.9,31.3-29.9,56.7-29.7,88.2c0.3,33.2,38.2,62.7,25.6,93.4
					c-4,9.7-12.8,17.9-12.7,28.4c0.1,7.9,5.4,15.5,3.5,23.2c-1.7,7-8.7,11.2-15.2,14.6c-19.2,10.1-38.9,19.9-60.3,23.2
					s-45-0.9-60.6-15.9c-24-23.1-22.4-62.4-25.1-93C1444.2,1212.3,1448.1,1177.1,1466.5,1144.2z"/>
				<path class="st11" d="M1597.4,1108.6c-13,16.9-18.3,37.7-23.4,58.1c-2.6,10.2-5.1,20.4-8.8,30.3c-3.3,8.7-7.7,20.3-16.4,25.1
					c6.6-32.8,12.9-65.6,3.8-98.4c-5-18.1-15.8-34-19.6-52.5c-3.5-17.6-1.2-35.8,0.5-53.4c1.6-16.6,2.9-33.8-1.3-50.2
					c-4.5-17.4-18.8-30.9-17-49.8c1.9-21.1,14.7-39.7,18.9-60.4c4.3-21.4,3.2-43.4,2-65c-0.2-4.5-7.3-4.5-7,0
					c1.1,19.8,2.3,40-1.1,59.6c-3.2,18.8-12.7,35.2-17.6,53.4c-2.2,8-3.2,16.4-1.7,24.7c1.6,9,6.6,16.5,10.8,24.4
					c8.6,16,9.2,34,8,51.7c-1.2,17.6-4.1,35.3-3,53c1.2,18.7,8.9,34.5,16,51.5c13.9,33,9.5,67.7,3,101.9c-7,36.9-16.3,75.3-6,112.6
					c1.2,4.3,8,2.5,6.8-1.9c-8.6-31-3.4-62,2.8-93c0.1,0,0.3,0,0.4-0.1c10.3-3.3,16.1-12.5,20.4-21.9c4.8-10.3,8-21.1,10.8-32.1
					c5.8-22.2,10.3-45.4,24.6-64C1606.2,1108.6,1600.1,1105.1,1597.4,1108.6z"/>
				<path class="st11" d="M1556.8,875.4h-1.3c-1.8,0-3.6,1.6-3.5,3.5c0.1,1.9,1.5,3.5,3.5,3.5h1.3c1.8,0,3.6-1.6,3.5-3.5
					C1560.2,877,1558.8,875.4,1556.8,875.4z"/>
				<path class="st11" d="M1565.9,1038.6c-4.5,0-4.5,7,0,7C1570.4,1045.6,1570.4,1038.6,1565.9,1038.6z"/>
				<path class="st11" d="M1547.8,1069.7h-1.3c-1.8,0-3.6,1.6-3.5,3.5c0.1,1.9,1.5,3.5,3.5,3.5h1.3c1.8,0,3.6-1.6,3.5-3.5
					C1551.2,1071.3,1549.7,1069.7,1547.8,1069.7z"/>
				<path class="st11" d="M1582.7,1089.1c-4.5,0-4.5,7,0,7C1587.2,1096.1,1587.2,1089.1,1582.7,1089.1z"/>
				<path class="st11" d="M1503.7,1015.3h-1.3c-1.8,0-3.6,1.6-3.5,3.5c0.1,1.9,1.5,3.5,3.5,3.5h1.3c1.8,0,3.6-1.6,3.5-3.5
					C1507.1,1016.9,1505.7,1015.3,1503.7,1015.3z"/>
				<path class="st11" d="M1554.2,901.3c-4.5,0-4.5,7,0,7C1558.7,908.3,1558.7,901.3,1554.2,901.3z"/>
				<path class="st11" d="M1556.8,836.6c-4.5,0-4.5,7,0,7C1561.3,843.6,1561.3,836.6,1556.8,836.6z"/>
			</g>
		</g>
		<g>
			<g>
				<path class="st9" d="M664.7,1204.5c-9.5-17.1-23.4-33.6-23.1-53.1c0.3-20.6,16.2-37.4,23.3-56.8c8.4-22.8,3.5-50-12.2-68.6
					c-9-10.6-22-20.1-22.4-34.1c-0.4-11.7,8.7-21.5,11.8-32.9c3.9-14-1.8-29.3-11.2-40.4c-9.4-11.1-22.1-18.8-34.5-26.4
					c-6.1-3.7-14.6-7.2-19.7-2.2c-1.9,1.8-2.7,4.5-3.3,7c-6.1,28.5,17.9,59.2,5.9,85.7c-5.9,13.1-19.7,21.8-24.5,35.4
					c-9.8,27.9,22.9,56.1,16.8,85.1c-4.4,20.9-27.8,34.5-30.4,55.7c-3.1,24.9,23.8,45.1,23.6,70.2c-0.2,26.4-30.4,49.9-20.4,74.3
					c3.2,7.7,10.2,14.2,10.1,22.6c-0.1,6.3-4.3,12.3-2.8,18.4c1.4,5.6,6.9,8.9,12,11.6c15.2,8,30.9,15.8,48,18.5
					c17,2.6,35.8-0.7,48.2-12.6c19.1-18.4,17.8-49.6,19.9-74C682.4,1258.7,679.3,1230.7,664.7,1204.5z"/>
				<path class="st10" d="M645.9,1274.2c2.5-20.6,8.9-41.9,2.5-61.7c-6.9-21.1-27.4-36.6-30.2-58.6c-3.6-28.1,23.1-51.6,26.1-79.7
					c1.5-14.3-3.2-28.8-1.1-43c0.6-4.1,1.8-8.1,3.2-12c2.2,2.3,4.3,4.5,6.3,6.9c15.8,18.5,20.6,45.7,12.2,68.6
					c-7.1,19.4-23,36.1-23.3,56.8c-0.3,19.6,13.6,36,23.1,53.1c14.6,26.2,17.7,54.1,15.2,83.5c-2.1,24.3-0.9,55.3-19.7,73.7
					c-1.7-2.1-2.8-4.7-3.8-7.3C646.2,1329.2,642.6,1301.3,645.9,1274.2z"/>
				<path class="st11" d="M560.6,1176.3c10.4,13.4,14.5,30,18.6,46.2c2,8.1,4.1,16.2,7,24.1c2.6,6.9,6.1,16.2,13.1,20
					c-5.2-26.1-10.3-52.1-3-78.2c4-14.4,12.6-27.1,15.5-41.8c2.8-14,0.9-28.4-0.4-42.5c-1.3-13.2-2.3-26.9,1.1-39.9
					c3.6-13.8,14.9-24.6,13.5-39.6c-1.5-16.8-11.7-31.6-15-48c-3.4-17-2.5-34.5-1.6-51.7c0.2-3.6,5.8-3.6,5.6,0
					c-0.9,15.7-1.8,31.8,0.8,47.4c2.6,14.9,10.1,28,14,42.5c1.7,6.4,2.5,13.1,1.4,19.6c-1.3,7.1-5.2,13.1-8.6,19.4
					c-6.8,12.7-7.3,27-6.3,41.1c1,14,3.3,28,2.4,42.1c-0.9,14.9-7,27.4-12.7,40.9c-11.1,26.2-7.6,53.8-2.4,81
					c5.6,29.4,13,59.9,4.8,89.5c-1,3.4-6.3,2-5.4-1.5c6.8-24.7,2.7-49.3-2.2-74c-0.1,0-0.2,0-0.3-0.1c-8.2-2.6-12.8-10-16.2-17.4
					c-3.8-8.2-6.4-16.8-8.6-25.5c-4.6-17.7-8.2-36.1-19.6-50.9C553.6,1176.3,558.5,1173.5,560.6,1176.3z"/>
				<path class="st11" d="M592.8,990.9h1c1.5,0,2.8,1.3,2.8,2.8c-0.1,1.5-1.2,2.8-2.8,2.8h-1c-1.5,0-2.8-1.3-2.8-2.8
					C590.1,992.2,591.3,990.9,592.8,990.9z"/>
				<path class="st11" d="M585.6,1120.6c3.6,0,3.6,5.6,0,5.6C582.1,1126.2,582,1120.6,585.6,1120.6z"/>
				<path class="st11" d="M600.1,1145.3h1c1.5,0,2.8,1.3,2.8,2.8c-0.1,1.5-1.2,2.8-2.8,2.8h-1c-1.5,0-2.8-1.3-2.8-2.8
					C597.3,1146.6,598.5,1145.3,600.1,1145.3z"/>
				<path class="st11" d="M572.2,1160.8c3.6,0,3.6,5.6,0,5.6C568.7,1166.3,568.7,1160.8,572.2,1160.8z"/>
				<path class="st11" d="M635.1,1102.1h1c1.5,0,2.8,1.3,2.8,2.8c-0.1,1.5-1.2,2.8-2.8,2.8h-1c-1.5,0-2.8-1.3-2.8-2.8
					C632.3,1103.4,633.5,1102.1,635.1,1102.1z"/>
				<path class="st11" d="M594.9,1011.5c3.6,0,3.6,5.6,0,5.6C591.3,1017,591.3,1011.5,594.9,1011.5z"/>
				<path class="st11" d="M592.8,960c3.6,0,3.6,5.6,0,5.6C589.3,965.6,589.3,960,592.8,960z"/>
			</g>
			<g>
				<path class="st9" d="M792.7,1144.2c-12-21.5-29.4-42.2-29.1-66.8c0.4-26,20.3-47,29.3-71.4c10.6-28.7,4.5-62.9-15.4-86.3
					c-11.4-13.3-27.7-25.3-28.2-42.8c-0.4-14.8,10.9-27.1,14.9-41.3c4.9-17.6-2.3-36.9-14.1-50.8c-11.8-14-27.8-23.7-43.4-33.2
					c-7.7-4.7-18.4-9.1-24.8-2.7c-2.3,2.3-3.4,5.6-4.1,8.8c-7.6,35.8,22.5,74.4,7.4,107.8c-7.5,16.5-24.8,27.4-30.8,44.5
					c-12.3,35.1,28.8,70.6,21.2,107c-5.5,26.3-34.9,43.3-38.2,70c-3.9,31.3,29.9,56.7,29.7,88.2c-0.3,33.2-38.2,62.7-25.6,93.4
					c4,9.7,12.8,17.9,12.7,28.4c-0.1,7.9-5.4,15.5-3.5,23.2c1.7,7,8.7,11.2,15.2,14.6c19.2,10.1,38.9,19.9,60.3,23.2
					c21.4,3.3,45-0.9,60.6-15.9c24-23.1,22.4-62.4,25.1-93C815,1212.3,811.1,1177.1,792.7,1144.2z"/>
				<path class="st11" d="M661.9,1108.6c13,16.9,18.3,37.7,23.4,58.1c2.6,10.2,5.1,20.4,8.8,30.3c3.3,8.7,7.7,20.3,16.4,25.1
					c-6.6-32.8-12.9-65.6-3.8-98.4c5-18.1,15.8-34,19.6-52.5c3.5-17.6,1.2-35.8-0.5-53.4c-1.6-16.6-2.9-33.8,1.3-50.2
					c4.5-17.4,18.8-30.9,17-49.8c-1.9-21.1-14.7-39.7-18.9-60.4c-4.3-21.4-3.2-43.4-2-65c0.2-4.5,7.3-4.5,7,0
					c-1.1,19.8-2.3,40,1.1,59.6c3.2,18.8,12.7,35.2,17.6,53.4c2.2,8,3.2,16.4,1.7,24.7c-1.6,9-6.6,16.5-10.8,24.4
					c-8.6,16-9.2,34-8,51.7c1.2,17.6,4.1,35.3,3,53c-1.2,18.7-8.9,34.5-16,51.5c-13.9,33-9.5,67.7-3,101.9c7,36.9,16.3,75.3,6,112.6
					c-1.2,4.3-8,2.5-6.8-1.9c8.6-31,3.4-62-2.8-93c-0.1,0-0.3,0-0.4-0.1c-10.3-3.3-16.1-12.5-20.4-21.9c-4.8-10.3-8-21.1-10.8-32.1
					c-5.8-22.2-10.3-45.4-24.6-64C653.1,1108.6,659.1,1105.1,661.9,1108.6z"/>
				<path class="st11" d="M702.4,875.4h1.3c1.8,0,3.6,1.6,3.5,3.5c-0.1,1.9-1.5,3.5-3.5,3.5h-1.3c-1.8,0-3.6-1.6-3.5-3.5
					C699,877,700.4,875.4,702.4,875.4z"/>
				<path class="st11" d="M693.3,1038.6c4.5,0,4.5,7,0,7C688.8,1045.6,688.8,1038.6,693.3,1038.6z"/>
				<path class="st11" d="M711.5,1069.7h1.3c1.8,0,3.6,1.6,3.5,3.5c-0.1,1.9-1.5,3.5-3.5,3.5h-1.3c-1.8,0-3.6-1.6-3.5-3.5
					C708,1071.3,709.5,1069.7,711.5,1069.7z"/>
				<path class="st11" d="M676.5,1089.1c4.5,0,4.5,7,0,7C672,1096.1,672,1089.1,676.5,1089.1z"/>
				<path class="st11" d="M755.5,1015.3h1.3c1.8,0,3.6,1.6,3.5,3.5c-0.1,1.9-1.5,3.5-3.5,3.5h-1.3c-1.8,0-3.6-1.6-3.5-3.5
					C752.1,1016.9,753.5,1015.3,755.5,1015.3z"/>
				<path class="st11" d="M705,901.3c4.5,0,4.5,7,0,7C700.5,908.3,700.5,901.3,705,901.3z"/>
				<path class="st11" d="M702.4,836.6c4.5,0,4.5,7,0,7C697.9,843.6,697.9,836.6,702.4,836.6z"/>
			</g>
		</g>
		<path class="st12" d="M593.9,1377c0,0,476.4-701,540.6-986c0,0,350.2,792,564.4,988.4L593.9,1377z"/>
		<path class="st10" d="M1134.5,390.9v1000.2l263.3-8.8C1397.8,1382.3,1132.4,586.9,1134.5,390.9z"/>
		<path class="st13" d="M1134.5,390.9c0,0,261.9,911.3,420.4,989.7h-226.2C1328.7,1380.7,1124.2,519.3,1134.5,390.9z"/>
		<path class="st4" d="M1172.6,1174c21-5.2,42.4-9.9,64-8.6c21.6,1.3,43.6,9.5,57.3,26.2c15.1,18.4,18,43.8,18.9,67.6
			c0.8,20.1,0.4,41.2-9.3,58.9c-7.8,14.3-20.9,24.9-34.8,33.3c-49.2,29.5-109.2,34-166.6,35.1c-50.6,1-101.2,0-151.6-3.9
			c-29.8-2.3-101.8,3-117.7-28.2c-18.1-35.4,22.8-56.8,47.5-69.7c43.7-22.7,88.6-43,134.6-60.7C1066.3,1204,1119,1187.4,1172.6,1174
			z"/>
		<path class="st14" d="M1233.7,1288.7c-48.6,3.5-96.4,14.5-144.5,22.5c-85.2,14.1-172.1,18.6-258.3,13.4
			c-3.7,8.6-3.9,18.4,1.8,29.7c15.9,31.2,87.9,25.8,117.7,28.2c50.4,4,101.1,4.9,151.6,3.9c57.4-1.1,117.3-5.6,166.6-35.1
			c13.9-8.4,27.1-19,34.8-33.3c4.6-8.4,7-17.5,8.3-26.9C1286.1,1287.2,1259.6,1286.8,1233.7,1288.7z"/>
		<g>
			<path class="st15" d="M902.5,1124.4c0,0-304.5,197.7-257.1,262.3s368.2,5.7,368.2,5.7s70.4,28.4,70.7,9.2
				c0.4-19.2-34.8-53.5-84.7-61.7c-49.8-8.2-89.4-26.6-89.4-26.6s339.3-100.4,354.9-63.7c15.6,36.7,32.4,139.8,32.4,139.8h126.8
				c0,0-20.4-35.8-58.9-36.8c0,0,107.6-178.5,64.8-220c-42.7-41.5-327.2-15.2-327.2-15.2L902.5,1124.4z"/>
			<path class="st16" d="M1065.9,1259.8c-1.5-9-3.2-18-4.7-27.1c-3.2-18.4-6.4-36.7-9.6-55.1c-0.6-3.2-5.4-1.8-4.8,1.3
				c2.5,14.5,5.1,29,7.6,43.5c1.3,7.4,2.6,14.8,3.9,22.2l1.7,9.7c0.7,3.7,3.3,11.8-3.4,10.6c-7.4-1.4-9.8-10-11.4-16.2
				c-1.8-6.9-3.3-13.8-4.8-20.7c-3-14.5-5.4-29.2-7.7-43.8c-0.5-3.2-5.3-1.8-4.8,1.3c2.9,17.8,5.8,35.6,9.8,53.2
				c2.5,11.1,5.6,32.5,21.5,31.2C1065.3,1269.5,1066.8,1265.4,1065.9,1259.8z"/>
			<path class="st16" d="M1023.4,1188.9c-37.6,15.5-75,31.2-112.4,47.2c-36.7,15.7-73.6,31-109.7,48.1
				c-16.2,7.7-32.1,16.3-46.4,27.1c-9.7,7.4-26,19.3-13.4,32c5.6,5.6,13.8,6.4,21.2,6.9c10.2,0.8,20.4,1.5,30.6,2.2
				c20.4,1.4,40.8,2.7,61.2,3.9c46.4,2.8,92.9,5.1,139.3,7c3.2,0.1,3.2-4.9,0-5c-76.5-3.1-152.9-7.4-229.2-13
				c-7.8-0.6-22.7-1.4-22.9-12.4c-0.1-4.3,3.8-7.5,6.8-10.1c3.5-3.1,7.2-6.1,10.9-8.9c13.5-10,28.4-18,43.5-25.2
				c33.3-15.9,67.5-30,101.4-44.6c40-17.2,80-34,120.2-50.6C1027.7,1192.5,1026.4,1187.7,1023.4,1188.9z"/>
			<path class="st16" d="M1334.4,1166.7c-0.3-3.7-0.9-7.8-3.5-10.6c-3.3-3.5-7.8-3.3-12.1-2.8c-13.4,1.5-26.9,3.1-40.3,4.7
				c-27.5,3.2-55,6.4-82.6,9.6c-30.8,3.6-61.6,7.2-92.4,10.8c-3.1,0.4-3.2,5.4,0,5c51.8-6,103.5-12.1,155.3-18.1
				c12.8-1.5,25.6-3,38.3-4.5c6.2-0.7,12.4-1.5,18.7-2.2c2.7-0.3,6.6-1.4,9.3-0.5c3.5,1.2,4.1,5.3,4.4,8.5c1.9,25-1.5,50.7-4,75.6
				c-3,28.5-6,57-4.6,85.7c0.2,3.2,5.1,3.2,5,0c-1.4-27.1,1.3-54,4.1-80.9C1332.7,1220.7,1336.5,1193.3,1334.4,1166.7z"/>
			<path class="st10" d="M1365.5,1352.5c0,0,9.8-16.3,22.3-40.1c-13.8,5.4-29.5,7.3-44.4,8.9c-12.8,1.4-25.7,2.8-38.6,1.3
				c-7.2-0.8-14.4-2.6-21-5.6c7.9,36.8,13.7,72.3,13.7,72.3h126.8C1424.4,1389.3,1404.1,1353.5,1365.5,1352.5z"/>
			<path class="st10" d="M974,1372.5c-0.1,8.9-0.9,17.9-3.8,26.3c-0.1,0.3-0.2,0.5-0.3,0.7c26.7-4,43.7-7.1,43.7-7.1
				s70.4,28.4,70.7,9.2c0.4-19.2-34.8-53.5-84.7-61.7c-13.2-2.2-25.6-5.1-36.9-8.1c3.6,4.3,6.3,9.6,8,15
				C973.5,1355,974.1,1363.8,974,1372.5z"/>
			<path class="st10" d="M993.9,1338.8c-47.1-8.6-83.7-25.6-83.7-25.6s9.4-2.8,25.2-7.3l-166.8,7.3
				C768.7,1313.2,931.8,1328.4,993.9,1338.8z"/>
			<path class="st10" d="M907.9,1250.1c18.9,2.6,38.6,2.2,56.5-4.3c22.5-8.1,40.5-24.9,58.2-41c3.2-2.9,6.5-5.8,10.6-7
				c4.9-1.5,10.2-0.2,15.3,0.8c42.2,8.6,90.1-3.1,117.2-36.6c11.8-14.6,19.1-32.2,23.7-50.6c-49.3,2.4-86.2,5.9-86.2,5.9l-200.6,7
				c0,0-46.7,30.3-100.7,71.1C829.9,1224.8,867.8,1244.5,907.9,1250.1z"/>
			<g>
				<path class="st17" d="M1092.1,812.2c0,0,180,199.3,181.1,202.4c1.1,3.1,108.8-10,108.8-10s-69.3,116.2-113,119.8
					c-43.7,3.6-161.3-119.8-161.3-119.8L1092.1,812.2z"/>
				<path class="st10" d="M1364.6,1006.7c-31.2,0.1-90.5,10.2-91.3,8c-0.1-0.2-0.6-0.8-1.5-1.9c-41.4,8.8-82.4,19.6-122.7,32.5
					c7.5,7,15.6,14.4,24.1,21.7c58.2-17.8,119.9-24.9,178.1-43.5C1355.3,1022,1362.1,1009.9,1364.6,1006.7z"/>
				<path class="st10" d="M1287.3,1027.3c-0.3,0.1-35.4,58.2-35.4,58.2v-49.4L1287.3,1027.3z"/>
				<path class="st18" d="M1092.1,812.2c0,0-226.6,54.9-248.4,83.6s50.6,270.3,50.6,270.3l224.9-18.6
					C1119.2,1147.5,1125.3,889.6,1092.1,812.2z"/>
				<path class="st10" d="M991,1155.2c-28.8-27.8-56.9-56.4-84.1-85.8c-1.9-2-3.9-4.3-3.9-7.1c0-1.9,0.9-3.7,1.9-5.4
					c8-14.1,17.6-27.3,24.8-41.8c7.2-14.6,11.8-31,9-47c-1.5-8.6-5.1-16.7-9.7-24c-11.2-17.5-28.9-30.8-48.8-36.5
					c-12.8-3.7-26.2-4.3-39.6-3.9c-9.8,50.6,53.7,262.3,53.7,262.3l99.2-8.2C992.8,1156.9,991.9,1156.1,991,1155.2z"/>
				<path class="st9" d="M1053.3,958.8c-30,0-57.2,12-77.1,31.5c-17.2-8.7-36.7-13.6-57.3-13.6c-70.4,0-127.5,57.2-127.5,127.8
					c0,70.6,57.1,127.8,127.5,127.8c43.7,0,82.3-22.1,105.2-55.7c9.3,2.5,19.1,3.9,29.2,3.9c61,0,110.5-49.6,110.5-110.9
					C1163.8,1008.5,1114.4,958.8,1053.3,958.8z"/>
				<path class="st10" d="M890.2,1105.5c-1.9-1.9-3.9-4-4.6-6.6c-0.5-2.1-0.1-4.3,0.4-6.4c9-42.3,30.2-81.8,60.2-112.9
					c-8.8-1.9-17.9-3-27.3-3c-70.4,0-127.5,57.2-127.5,127.8c0,8.8,0.9,17.3,2.6,25.6c32,12.1,64,24.1,96,36.2
					c14.3,5.4,28.6,10.8,43.4,14.4c3.5,0.9,7.1,1.6,10.4,3.2c3.9,1.8,7.3,4.7,10.7,7.3c11.6,8.6,25.3,14.3,39.6,16.6
					c7.1-5.2,13.7-11.2,19.6-17.8c-1-0.4-2-0.7-2.9-1.1C964.3,1172.5,925.2,1140.2,890.2,1105.5z"/>
				<ellipse class="st10" cx="1014.1" cy="1076.5" rx="39.5" ry="39.6"/>
				<polygon class="st10" points="1028.4,908.3 1046.5,881.6 1072.6,892 1057.2,844.2 1038.5,842.2 				"/>
				<polygon class="st10" points="988.6,838.1 1028.4,908.3 1046.5,815.6 				"/>
				<path class="st10" d="M988.6,889.4l39.8,18.9l-34.3-70.2c-12.5,3.5-25.3,7.3-38,11.1l16.2,66.8L988.6,889.4z"/>
				<path class="st17" d="M1028.4,908.3l-22.6-68.8l-39-5.8l-18,24.9l14.2,46.2l24.2-36.9C998.1,884.8,1028.4,908.3,1028.4,908.3z"
					/>
				<path class="st17" d="M1028.4,908.3l2.6-74.5l15.9-16.9l25.8,16.7l3.4,48.2l-35.8-25.6C1036.2,875.8,1028.4,908.3,1028.4,908.3z
					"/>
				<g>
					<path class="st19" d="M951.4,800.4c0,0,13.3,64,62.7,47.1s30.3-65.3,30.3-65.3L951.4,800.4z"/>
					<path class="st10" d="M1044.4,782.2l-93,18.2c0,0,3.9,18.9,15.4,33.4c18.6-1.5,51-5.8,79.7-18.2
						C1050.8,798.6,1044.4,782.2,1044.4,782.2z"/>
					<path class="st15" d="M908.8,834.6c39-2.6,115.5-11.8,186.5-44.3c8.8-4,6.8-17.1-2.8-18.3c-42.8-5.5-125.2-7.1-190.4,45.5
						C894.8,823.4,899.4,835.2,908.8,834.6z"/>
					<path class="st15" d="M1035.8,765.8c-10.3-19.7-32.7-29.9-54.3-24.6l-0.4,0.1c-23.5,5.7-39.2,28.1-36.7,52.2l0.7,6.9
						c38.5,13.5,99.2-18.2,99.2-18.2L1035.8,765.8z"/>
				</g>
				<path class="st19" d="M974.8,1155.8c5.7-5.9,13.7-9.4,21.9-9.6c1.7,0,3.6,0.1,5,1.1c1.5,1,2.3,3,1.5,4.5
					c-0.7,1.2-2.1,1.8-3.4,2.2c-4.2,1.4-8.3,2.8-12.5,4.1c-0.8,0.3-1.7,0.6-2.3,1.3c-1.4,2,1.2,4.4,3.4,5.3
					c7.6,2.8,16.3,2.3,23.6-1.3c1.8-0.9,3.6-2,5.6-2.3c2-0.3,4.3,0.5,5.1,2.4c1.1,2.9-2.1,5.6-4.9,6.9c-4.1,1.9-8.5,3.5-12.9,4.5
					c5.2-1.2,10.6-1.4,15.8-0.5c1.9,0.3,4.2,1.5,3.9,3.3c-0.2,1.1-1.3,1.8-2.4,2.3c-4.9,2.3-10.5,3.1-15.8,2.3
					c3.1,0.3,6.2,0.6,9,1.9c2.8,1.4,5.1,4.1,5.1,7.2c-6.6,1.1-13.4,0.2-19.5-2.6c4,2.6,6.7,7,7.4,11.7c-17.8,3.2-37.2-4.8-47.5-19.7
					c-1.4-2-2.6-4-4.2-5.7c-2.3-2.3-5.2-3.8-8.1-5.4c-0.9-0.5-1.8-1-2.2-1.9c-0.4-1-0.1-2.1,0.2-3.1c1.2-3.8,2.3-7.6,4.6-10.9
					C958.8,1142.8,966.5,1150.2,974.8,1155.8z"/>
				<path class="st17" d="M884.4,1053.9l43-72.1c12.2-20.4,10.4-46.3-4.6-64.7c-16.8-20.8-43.4-39.4-79-21.3
					c0,0-72.5,119.8-79.4,200.4c0,0,151.4,74.8,187.1,75.5l21-18.3L884.4,1053.9z"/>
				<polygon class="st15" points="1529.8,972.6 1046.4,1081.6 1039.3,1050.8 1522.7,941.8 				"/>
				<polygon class="st10" points="884.4,1053.9 826.1,1061.1 906.5,1078.9 				"/>
				<path class="st19" d="M1343.4,1027.2c0,0-3.8-20,10-22.8c13.8-2.8,32-12.3,21.6-21.6c0.2,0.1,0.8-0.4,0.6-0.4
					c-0.2,0-0.4-0.1-0.6-0.2c-1.7-1.3-3.3-3.1-3.1-5.2c0.2-2.5,3.2-4.2,5.7-3.6c2.5,0.5,4.4,2.6,5.6,4.8c2.7,4.9,2.8,11.1,0.4,16.1
					c-1,0.5-0.8,2.2-1.1,3.3c3,1.7,7-0.6,8.4-3.9c1.3-3.2,0.7-6.9-0.2-10.2c-0.5-2-1.2-4-2.1-5.8c-0.5-1.1-1.2-2.1-1.5-3.3
					c-0.6-2.9,1.8-6.1,4.7-6.3c3.2-0.2,5.8,2.5,7.3,5.3c3.6,6.9,2.8,16-2.1,22.1c1.1,0.3,1.4,0.7,2.5,0.2
					c7.3-3.3,11.4-11.4,12.2-19.4c0.2-2.7,0.2-5.5-0.8-7.9c-2.2-5.3-8.8-8.3-14.2-6.3c-0.5-1.7,0.5-3.4,1.9-4.5
					c1.4-1,3.1-1.4,4.8-1.7c3.6-0.7,7.6-1.2,10.9,0.5c2.6,1.4,4.4,4,5.5,6.7c3.3,8,1.6,18-4.3,24.4c6.6-0.7,12-7.8,10.5-14.3
					c-0.3-1.4-0.9-2.8-0.3-4.1c0.8-2.1,4-2.1,5.6-0.6s2,3.9,2,6.1c0.3,11.1-5.3,22-14,29c-8.7,6.9-20.1,10-31.1,9.4
					c-5-0.3-10.4-1.2-14.5,1.5c-3.7,2.4-5.5,7.2-9.3,9.6c-2.7,1.6-5.9,1.8-9,1.9C1352,1026.1,1346.8,1027.2,1343.4,1027.2z"/>
				<polygon class="st15" points="1610,970 1490.5,993.1 1479.6,935.9 1599.1,912.9 				"/>
			</g>
			<path class="st10" d="M1308.1,1201.7c-25.4,12.4-50.3,25.6-74.7,39.8c17.6-0.4,29.2,1.9,31.8,8c15.6,36.7,32.4,139.8,32.4,139.8
				h16.7C1300.3,1327.9,1298.2,1263.9,1308.1,1201.7z"/>
		</g>
		<g>
			<ellipse class="st20" cx="1134.2" cy="1553.2" rx="311.7" ry="99.7"/>
			<ellipse class="st21" cx="1134.2" cy="1553.2" rx="254.4" ry="81.4"/>
			<g>
				<path class="st10" d="M967.5,1571.6c-7.8,3.7-15.8,7.7-21.3,14.3c-5.6,6.6-8,16.6-3.5,24c3.8,6.2,11.6,9,18.9,8.7
					c7.3-0.3,14.1-3.1,20.8-6c52-22.3,102.1-49,152.1-75.6c4.9-2.6,10.2-5.8,11.5-11.2c3.5-15-13.2-24.5-24.9-20.9
					c-16.9,5.1-33.8,13.3-50.1,20C1035.9,1539.4,1001.6,1555.2,967.5,1571.6z"/>
				<path class="st10" d="M974.2,1482.7c-8.6-0.7-17.5-1.3-25.6,1.6c-8.1,2.9-15.3,10.3-15.1,19c0.2,7.3,5.5,13.6,12,17
					c6.4,3.4,13.8,4.4,21,5.3c56.2,6.8,112.9,8.8,169.5,10.9c5.5,0.2,11.8,0.1,15.6-3.9c10.5-11.2,0.9-27.8-11.1-30.6
					c-17.2-4.1-35.9-5.5-53.4-7.8C1049.5,1489.2,1011.9,1485.7,974.2,1482.7z"/>
				<path class="st10" d="M1328,1482.7c8.6-0.7,17.5-1.3,25.6,1.6c8.1,2.9,15.3,10.3,15.1,19c-0.2,7.3-5.5,13.6-12,17
					c-6.4,3.4-13.8,4.4-21,5.3c-56.2,6.8-112.9,8.8-169.5,10.9c-5.5,0.2-11.8,0.1-15.6-3.9c-10.5-11.2-0.9-27.8,11.1-30.6
					c17.2-4.1,35.9-5.5,53.4-7.8C1252.7,1489.2,1290.4,1485.7,1328,1482.7z"/>
				<path class="st10" d="M1302.9,1571.6c7.8,3.7,15.8,7.7,21.3,14.3c5.6,6.6,8,16.6,3.5,24c-3.8,6.2-11.6,9-18.9,8.7
					c-7.3-0.3-14.1-3.1-20.8-6c-52-22.3-102.1-49-152.1-75.6c-4.9-2.6-10.2-5.8-11.5-11.2c-3.5-15,13.2-24.5,24.9-20.9
					c16.9,5.1,33.8,13.3,50.1,20C1234.5,1539.4,1268.9,1555.2,1302.9,1571.6z"/>
				<g>
					<path class="st18" d="M1117.7,1154.6c42.3,90.7-7.1,124-89.3,224c-32.5,39.6-34.2,74.8-24.3,102.9
						c15.6,44.3,59.8,67.2,106.7,67C1464,1547.3,1117.7,1154.6,1117.7,1154.6z"/>
					<g>
						<path class="st20" d="M1212.6,1394.1c-14-38.4-35.9-73.3-58.6-107.3c9.6,27.2,3.2,58.2-11.2,83.1s-36.1,44.9-58.4,63.3
							c-20.3,16.7-43,35-46.8,61c-2.1,14.5,3.2,29.3,12.9,40.3c5.8,3.1,11.9,5.7,18.3,7.7c-0.8-5.7-0.5-11.6,1.3-17.4
							c5.7-19.4,24.6-31.2,40.1-44.4c24.9-21.2,43.4-49.8,52.3-81.3c23.2,25.5,35,61,31.7,95.3c-1.6,16.6-6.7,32.8-14.6,47.4
							c14.2-3.2,26.5-7.4,37-12.5c1.9-4.9,3.6-9.8,4.9-14.9C1232.2,1475,1226.6,1432.5,1212.6,1394.1z"/>
						<path class="st21" d="M1179.6,1541.8c7.9-14.6,13-30.8,14.6-47.4c3.3-34.3-8.5-69.8-31.7-95.3c-9,31.4-27.4,60.1-52.3,81.3
							c-15.4,13.1-34.4,24.9-40.1,44.4c-1.7,5.9-2,11.7-1.3,17.4c13.2,4.3,27.4,6.5,41.9,6.4
							C1137.6,1548.5,1160.4,1546.1,1179.6,1541.8z"/>
					</g>
				</g>
			</g>
		</g>
		<path class="st10" d="M465.6,1348.1h-7.9c-9.7,0-16.4,9.6-13.2,18.7l14.6,41.4h20.6v-46.1C479.6,1354.4,473.3,1348.1,465.6,1348.1
			z"/>
		<path class="st10" d="M1805.9,1348.1h7.9c9.7,0,16.4,9.6,13.2,18.7l-14.6,41.4h-20.6v-46.1
			C1791.8,1354.4,1798.1,1348.1,1805.9,1348.1z"/>
		<path class="st20" d="M1508,611.2c-60.8,0-110.1-49.3-110.1-110.1c0-60.8,49.3-110.1,110.1-110.1c18.6,0,36.2,4.6,51.6,12.8
			c-28.2-34.5-71.1-56.5-119.1-56.5c-85,0-153.9,68.9-153.9,153.9c0,85,68.9,153.9,153.9,153.9c48,0,90.9-22,119.1-56.5
			C1544.1,606.6,1526.6,611.2,1508,611.2z"/>
		<polygon class="st0" points="1117.5,212.1 1094.4,212.1 1094.4,188.9 1089.9,188.9 1089.9,212.1 1066.7,212.1 1066.7,216.5 
			1089.9,216.5 1089.9,239.7 1094.4,239.7 1094.4,216.5 1117.5,216.5 		"/>
		<polygon class="st0" points="839.9,606.3 827.3,606.3 827.3,593.7 824.9,593.7 824.9,606.3 812.3,606.3 812.3,608.7 824.9,608.7 
			824.9,621.3 827.3,621.3 827.3,608.7 839.9,608.7 		"/>
		<polygon class="st0" points="1493.4,513.7 1480.8,513.7 1480.8,501.1 1478.3,501.1 1478.3,513.7 1465.7,513.7 1465.7,516.1 
			1478.3,516.1 1478.3,528.7 1480.8,528.7 1480.8,516.1 1493.4,516.1 		"/>
		<polygon class="st0" points="1468,738.6 1455.4,738.6 1455.4,726 1453,726 1453,738.6 1440.4,738.6 1440.4,741 1453,741 
			1453,753.6 1455.4,753.6 1455.4,741 1468,741 		"/>
		<polygon class="st0" points="639.9,781 627.3,781 627.3,768.4 624.8,768.4 624.8,781 612.2,781 612.2,783.4 624.8,783.4 
			624.8,796 627.3,796 627.3,783.4 639.9,783.4 		"/>
		<polygon class="st0" points="1662.2,724.8 1649.6,724.8 1649.6,712.2 1647.1,712.2 1647.1,724.8 1634.5,724.8 1634.5,727.2 
			1647.1,727.2 1647.1,739.8 1649.6,739.8 1649.6,727.2 1662.2,727.2 		"/>
		<polygon class="st0" points="1325.6,286.8 1313,286.8 1313,274.2 1310.6,274.2 1310.6,286.8 1297.9,286.8 1297.9,289.2 
			1310.6,289.2 1310.6,301.8 1313,301.8 1313,289.2 1325.6,289.2 		"/>
		<polygon class="st0" points="1712.8,860.7 1700.2,860.7 1700.2,848.1 1697.7,848.1 1697.7,860.7 1685.1,860.7 1685.1,863.1 
			1697.7,863.1 1697.7,875.8 1700.2,875.8 1700.2,863.1 1712.8,863.1 		"/>
		<polygon class="st0" points="493.4,860.7 480.8,860.7 480.8,848.1 478.4,848.1 478.4,860.7 465.8,860.7 465.8,863.1 478.4,863.1 
			478.4,875.8 480.8,875.8 480.8,863.1 493.4,863.1 		"/>
		<polygon class="st0" points="882.2,300.6 869.6,300.6 869.6,288 867.1,288 867.1,300.6 854.5,300.6 854.5,303 867.1,303 
			867.1,315.6 869.6,315.6 869.6,303 882.2,303 		"/>
		<polygon class="st0" points="1270.6,389.7 1258,389.7 1258,377.1 1255.6,377.1 1255.6,389.7 1243,389.7 1243,392.1 1255.6,392.1 
			1255.6,404.8 1258,404.8 1258,392.1 1270.6,392.1 		"/>
		<polygon class="st0" points="676.9,579.8 653.7,579.8 653.7,556.7 649.2,556.7 649.2,579.8 626,579.8 626,584.3 649.2,584.3 
			649.2,607.5 653.7,607.5 653.7,584.3 676.9,584.3 		"/>
		<polygon class="st0" points="1023.2,388.7 1000,388.7 1000,365.5 995.5,365.5 995.5,388.7 972.4,388.7 972.4,393.2 995.5,393.2 
			995.5,416.3 1000,416.3 1000,393.2 1023.2,393.2 		"/>
	</g>
</g>
</svg>
